<svg width="88" height="102" viewBox="0 0 88 102" fill="none" xmlns="http://www.w3.org/2000/svg">
<path d="M45.0493 15.9276C45.0518 15.0857 46.1903 14.8261 46.5571 15.5839L50.1997 23.1073C54.6246 32.2463 62.2628 39.4342 71.6538 43.2958L85.7749 49.1014C87.7709 49.9224 87.5435 52.8207 85.4438 53.3202L75.4302 55.701C61.8117 58.9398 51.4425 69.9967 49.0835 83.7948L46.061 101.472C45.9298 102.239 44.7983 102.142 44.8003 101.363L44.9194 60.3026L54.3306 50.8925L44.9741 41.535L45.0493 15.9276Z" fill="#2F2F33"/>
<path d="M42.103 86.0729C42.1002 86.9144 40.962 87.1733 40.5952 86.4156L36.9526 78.8932C32.5278 69.754 24.8896 62.5664 15.4985 58.7047L1.37744 52.8981C-0.618554 52.0771 -0.391083 49.1799 1.7085 48.6803L11.7222 46.2985C25.3407 43.0597 35.7099 32.0029 38.0688 18.2047L41.0913 0.527954C41.2227 -0.239785 42.3543 -0.141659 42.3521 0.637329L42.2329 41.6979L32.8228 51.108L42.1782 60.4635L42.103 86.0729Z" fill="#2E2F33"/>
</svg>
