<svg xmlns="http://www.w3.org/2000/svg" width="725" height="963" viewBox="0 0 725 963" role="img"><title>playbook 6</title><g font-family="Inter,Arial,sans-serif"><rect x="0" y="0" width="725" height="963" rx="0" fill="#edf0f7" stroke="none"/><rect x="47" y="60" width="298" height="51" rx="24" fill="#ffffff" stroke="none"/><text x="196.0" y="90" font-size="25" fill="#35363d" font-weight="500" text-anchor="middle">06 / PLAYBOOK</text><text x="48" y="214" font-size="56" fill="#35363d" font-weight="500" text-anchor="start">Your boundaries</text><text x="48" y="263" font-size="26" fill="#626875" font-weight="400" text-anchor="start">Configured around your business</text><rect x="36" y="326" width="653" height="538" rx="28" fill="#ffffff" stroke="none"/><rect x="60" y="365" width="605" height="120" rx="18" fill="#edf0f7" stroke="none"/><rect x="81" y="400" width="49" height="49" rx="16" fill="#d8ff57" stroke="none"/><path d="M93 423.0l7.199999999999999 7.199999999999999 16.799999999999997 -19.200000000000003" stroke="#35363d" stroke-width="3" fill="none" stroke-linecap="round" stroke-linejoin="round"/><text x="155" y="437" font-size="28" fill="#35363d" font-weight="400" text-anchor="start">Know when to pause</text><rect x="60" y="513" width="605" height="120" rx="18" fill="#edf0f7" stroke="none"/><rect x="81" y="548" width="49" height="49" rx="16" fill="#d8ff57" stroke="none"/><path d="M93 571.0l7.199999999999999 7.199999999999999 16.799999999999997 -19.200000000000003" stroke="#35363d" stroke-width="3" fill="none" stroke-linecap="round" stroke-linejoin="round"/><text x="155" y="585" font-size="28" fill="#35363d" font-weight="400" text-anchor="start">Ask a person for help</text><rect x="60" y="661" width="605" height="120" rx="18" fill="#edf0f7" stroke="none"/><rect x="81" y="696" width="49" height="49" rx="16" fill="#d8ff57" stroke="none"/><path d="M93 719.0l7.199999999999999 7.199999999999999 16.799999999999997 -19.200000000000003" stroke="#35363d" stroke-width="3" fill="none" stroke-linecap="round" stroke-linejoin="round"/><text x="155" y="733" font-size="28" fill="#35363d" font-weight="400" text-anchor="start">No invented answers</text><text x="48" y="923" font-size="27" fill="#35363d" font-weight="500" text-anchor="start">SmartAi Sales</text></g></svg>